<?xml version="1.0" ?><!DOCTYPE svg  PUBLIC '-//W3C//DTD SVG 1.1//EN'  'http://www.w3.org/Graphics/SVG/1.1/DTD/svg11.dtd' [
	<!ENTITY stroke_color "#000">
	<!ENTITY fill_color "#eee">
]>
<svg version="1.1" id="Layer_1" xmlns="http://www.w3.org/2000/svg" xmlns:xlink="http://www.w3.org/1999/xlink" x="0px" y="0px"
	 width="75px" height="75px" viewBox="0 0 75 75" enable-background="new 0 0 75 75" xml:space="preserve">
<path id="W" fill="&stroke_color;" d="M32.211,50.263c0.292-0.638,0.587-1.273,0.877-1.911c1.099-2.415,2.185-4.832,3.306-7.236
	c0.183-0.393,0.191-0.712,0.019-1.091c-1.63-3.584-3.251-7.174-4.878-10.761c-0.206-0.455-0.441-0.896-0.644-1.351
	c-0.312-0.701-0.844-1.062-1.602-1.148c-0.624-0.071-0.903-0.583-0.639-1.164c0.05-0.113,0.255-0.221,0.39-0.222
	c2.361-0.014,4.724-0.016,7.085,0.003c0.151,0,0.439,0.208,0.43,0.288c-0.045,0.365,0.273,0.838-0.24,1.082
	c-0.169,0.081-0.371,0.098-0.561,0.129c-0.782,0.123-0.987,0.393-0.69,1.142c0.537,1.356,1.136,2.688,1.72,4.026
	c0.581,1.335,1.176,2.666,1.819,4.123c0.175-0.34,0.302-0.563,0.408-0.796c0.928-2.027,1.855-4.053,2.769-6.087
	c0.17-0.382,0.307-0.791,0.387-1.201c0.131-0.669-0.168-1.065-0.836-1.197c-0.208-0.04-0.42-0.063-0.629-0.096
	c-0.715-0.111-0.942-0.436-0.731-1.138c0.045-0.155,0.292-0.355,0.445-0.355c2.204,0,4.405,0.035,6.608,0.055
	c0.609,0.005,0.451,0.457,0.462,0.792c0.015,0.381-0.134,0.634-0.574,0.621c-0.839-0.023-1.424,0.356-1.803,1.106
	c-1.166,2.32-2.351,4.63-3.515,6.953c-0.576,1.152-1.135,2.312-1.663,3.486c-0.102,0.221-0.113,0.563-0.016,0.783
	c1.555,3.557,3.132,7.102,4.708,10.649c0.092,0.207,0.22,0.396,0.413,0.736c0.229-0.534,0.42-0.937,0.578-1.35
	c2.517-6.579,5.03-13.157,7.543-19.737c0.095-0.25,0.159-0.514,0.218-0.775c0.196-0.854-0.29-1.588-1.171-1.733
	c-0.418-0.068-0.847-0.064-1.266-0.127c-0.28-0.042-0.612-0.074-0.807-0.243c-0.176-0.156-0.268-0.491-0.263-0.743
	c0.005-0.14,0.265-0.325,0.445-0.396c0.227-0.087,0.49-0.104,0.737-0.104c2.672-0.007,5.344-0.003,8.016-0.005
	c0.404,0,0.774-0.02,0.758,0.584c-0.021,0.82-0.026,0.866-0.737,0.913c-1.782,0.119-2.875,1.108-3.515,2.724
	c-1.941,4.91-3.899,9.814-5.856,14.716c-1.365,3.425-2.734,6.847-4.117,10.265c-0.171,0.425-0.4,0.834-0.657,1.212
	c-0.573,0.854-1.317,0.847-1.876-0.031c-0.309-0.481-0.562-1.007-0.785-1.537c-1.425-3.378-2.835-6.766-4.252-10.148
	c-0.079-0.191-0.175-0.371-0.315-0.671c-0.561,1.263-1.072,2.431-1.598,3.588c-1.159,2.556-2.313,5.113-3.499,7.656
	c-0.233,0.501-0.542,0.982-0.9,1.403c-0.55,0.642-1.177,0.604-1.605-0.128c-0.403-0.692-0.699-1.449-1.011-2.19
	c-2.726-6.479-5.453-12.957-8.161-19.445c-0.754-1.807-1.5-3.62-2.152-5.465c-0.482-1.361-1.394-1.926-2.772-1.966
	c-0.254-0.007-0.618-0.199-0.729-0.411c-0.295-0.553,0.015-0.969,0.654-0.97c3.194-0.002,6.389,0,9.583-0.002
	c0.377,0,0.691,0.022,0.72,0.524c0.03,0.516-0.15,0.83-0.681,0.872c-0.636,0.052-1.274,0.062-1.907,0.126
	c-0.688,0.068-1.011,0.455-0.795,1.087c0.533,1.56,1.085,3.116,1.718,4.636c2.385,5.727,4.803,11.438,7.21,17.156
	c0.071,0.168,0.158,0.328,0.238,0.493C32.088,50.261,32.15,50.261,32.211,50.263z"/>
<g id="book">
	<path id="path3053_1_" fill="none" stroke="&stroke_color;" stroke-width="4" stroke-linecap="round" stroke-linejoin="round" d="
		M37.504,10.949h-0.003c0-0.003-2.233-2.68-12.239-3.269C15.254,7.093,10.01,9.771,10.006,9.773
		c-2.478,0.808-4.562,2.265-4.562,4.561V58.08c0,2.645,1.611,4.562,4.562,4.562c0.004,0,5.757-1.762,13.061-1.762
		c7.296-0.002,14.438,2.939,14.438,2.939"/>
	<path id="path3055_1_" fill="none" stroke="&stroke_color;" stroke-width="4" stroke-linecap="round" stroke-linejoin="round" d="
		M37.496,10.949L37.496,10.949c0-0.003,2.239-2.68,12.241-3.269c10.01-0.587,15.255,2.091,15.257,2.093
		c2.476,0.808,4.562,2.265,4.562,4.561V58.08c0,2.645-1.608,4.562-4.562,4.562c-0.004,0-5.755-1.762-13.06-1.762
		c-7.296-0.002-14.44,2.939-14.44,2.939"/>
</g>
<!--path id="circle" fill="&fill_color;" stroke="&stroke_color;" stroke-width="3" stroke-linecap="round" stroke-linejoin="round" d="
	M62.483,62.694c0,4.607-3.905,8.344-8.725,8.344c-4.818,0-8.725-3.736-8.725-8.344s3.906-8.342,8.725-8.342
	C58.578,54.353,62.483,58.087,62.483,62.694z"/>
<g id="EN" fill="&stroke_color;">
	<path d="M48.478,65.597V59.68h4.387v1.001h-3.192v1.312h2.971v0.997h-2.971v1.61h3.306v0.997H48.478z"/>
	<path d="M54.003,65.597V59.68h1.163l2.421,3.951V59.68h1.11v5.917h-1.199l-2.385-3.858v3.858H54.003z"/>
</g-->
<g id="SIMPLE" fill="&stroke_color;">
	<path d="M21.321,19.784l1.274-0.124c0.077,0.428,0.232,0.742,0.466,0.942c0.235,0.2,0.551,0.301,0.949,0.301
		c0.421,0,0.739-0.089,0.953-0.268c0.214-0.178,0.321-0.387,0.321-0.625c0-0.153-0.045-0.284-0.135-0.392
		c-0.09-0.108-0.247-0.201-0.471-0.281c-0.153-0.053-0.503-0.147-1.048-0.283c-0.702-0.174-1.195-0.388-1.478-0.642
		c-0.398-0.357-0.597-0.792-0.597-1.305c0-0.33,0.093-0.639,0.281-0.927c0.187-0.288,0.457-0.506,0.81-0.657
		s0.778-0.226,1.276-0.226c0.814,0,1.426,0.178,1.838,0.535s0.627,0.833,0.648,1.429L25.1,17.32
		c-0.056-0.333-0.176-0.573-0.361-0.719c-0.184-0.146-0.461-0.219-0.83-0.219c-0.38,0-0.678,0.079-0.894,0.235
		c-0.139,0.1-0.208,0.234-0.208,0.402c0,0.153,0.064,0.285,0.194,0.394c0.165,0.139,0.566,0.283,1.203,0.434
		c0.637,0.15,1.108,0.306,1.414,0.467s0.544,0.38,0.717,0.659c0.172,0.279,0.259,0.623,0.259,1.033c0,0.372-0.104,0.72-0.31,1.044
		c-0.207,0.324-0.499,0.565-0.876,0.723c-0.378,0.158-0.848,0.237-1.411,0.237c-0.82,0-1.45-0.189-1.889-0.569
		C21.669,21.062,21.407,20.51,21.321,19.784z"/>
	<path d="M27.656,21.895v-6.485h1.31v6.485H27.656z"/>
	<path d="M30.196,21.895v-6.485h1.959l1.177,4.424l1.164-4.424h1.964v6.485h-1.216V16.79l-1.287,5.105h-1.261
		l-1.283-5.105v5.105H30.196z"/>
	<path d="M37.76,21.895v-6.485h2.101c0.797,0,1.316,0.033,1.557,0.098c0.373,0.097,0.684,0.309,0.934,0.635
		c0.252,0.326,0.377,0.747,0.377,1.263c0,0.398-0.072,0.733-0.217,1.004s-0.328,0.484-0.551,0.639s-0.449,0.257-0.68,0.308
		c-0.312,0.062-0.766,0.093-1.357,0.093H39.07v2.446H37.76z M39.07,16.506v1.84h0.717c0.516,0,0.859-0.034,1.035-0.102
		c0.174-0.068,0.309-0.174,0.408-0.319s0.148-0.312,0.148-0.504c0-0.236-0.07-0.431-0.207-0.584
		c-0.139-0.153-0.314-0.25-0.527-0.288c-0.156-0.03-0.471-0.044-0.941-0.044H39.07z"/>
	<path d="M43.838,21.895v-6.432h1.31v5.339h3.256v1.093H43.838z"/>
	<path d="M49.337,21.895v-6.485h4.809v1.097h-3.499v1.438h3.256v1.092h-3.256v1.765h3.623v1.093H49.337z"/>
</g>
</svg>
